<?xml version="1.0" standalone="no"?>
<!DOCTYPE svg PUBLIC "-//W3C//DTD SVG 20010904//EN"
 "http://www.w3.org/TR/2001/REC-SVG-20010904/DTD/svg10.dtd">
<svg version="1.0" xmlns="http://www.w3.org/2000/svg"
 width="708.000000pt" height="708.000000pt" viewBox="0 0 708.000000 708.000000"
 preserveAspectRatio="xMidYMid meet">
<metadata>
Created by potrace 1.14, written by Peter Selinger 2001-2017
</metadata>
<g transform="translate(0.000000,708.000000) scale(0.100000,-0.100000)"
fill="#000000" stroke="none">
<path d="M3380 6329 c-687 -55 -1350 -362 -1847 -857 -155 -154 -326 -366
-423 -527 -301 -494 -448 -1011 -448 -1575 0 -865 373 -1679 1028 -2242 435
-374 931 -600 1515 -690 187 -28 523 -35 720 -14 724 78 1344 381 1848 905
422 439 689 980 788 1597 26 166 37 547 20 719 -65 660 -319 1234 -758 1720
-620 685 -1514 1038 -2443 964z m530 -290 c715 -68 1423 -469 1858 -1052 280
-375 458 -806 517 -1252 143 -1076 -365 -2119 -1305 -2675 -536 -317 -1190
-436 -1810 -329 -539 93 -1050 359 -1440 749 -610 611 -893 1490 -749 2328
126 743 539 1381 1162 1796 526 350 1120 496 1767 435z"/>
<path d="M2475 5540 c-3 -5 -5 -112 -4 -237 l1 -228 -68 -26 c-120 -44 -209
-97 -193 -113 2 -3 41 0 86 5 45 6 101 9 125 7 l43 -3 3 -1249 2 -1249 -25
-63 c-46 -115 -60 -204 -59 -384 0 -219 25 -351 115 -628 35 -108 78 -217 79
-202 0 3 -10 48 -22 100 -19 81 -22 125 -22 295 -1 176 2 211 22 290 66 260
244 481 470 582 141 63 316 110 622 168 673 128 883 175 1103 252 222 77 387
165 520 277 107 89 204 244 243 386 25 88 24 353 0 495 -36 201 -123 421 -223
556 -265 363 -718 578 -1348 640 -279 28 -742 9 -1027 -41 -62 -11 -130 -23
-150 -26 l-38 -7 0 207 0 206 -124 0 c-71 0 -127 -4 -131 -10z m374 -669 c197
-66 334 -146 464 -270 132 -126 214 -268 260 -449 18 -74 22 -114 21 -267 0
-251 -34 -399 -125 -551 -49 -81 -183 -220 -297 -307 -89 -68 -421 -287 -436
-287 -3 0 -6 486 -6 1080 0 984 1 1080 16 1080 9 0 55 -13 103 -29z"/>
</g>
</svg>
